<svg xmlns="http://www.w3.org/2000/svg" xmlns:xlink="http://www.w3.org/1999/xlink" width="378" zoomAndPan="magnify" viewBox="0 0 283.5 283.500005" height="378" preserveAspectRatio="xMidYMid meet" version="1.0"><defs><g/><clipPath id="f79d8231c8"><path d="M 0 0 L 283 0 L 283 283 L 0 283 Z M 0 0 " clip-rule="nonzero"/></clipPath><clipPath id="c20606b42b"><path d="M 9.011719 9.011719 L 273.992188 9.011719 L 273.992188 273.992188 L 9.011719 273.992188 Z M 9.011719 9.011719 " clip-rule="nonzero"/></clipPath><clipPath id="b50b152aee"><path d="M 141.5 9.011719 C 68.328125 9.011719 9.011719 68.328125 9.011719 141.5 C 9.011719 214.671875 68.328125 273.992188 141.5 273.992188 C 214.671875 273.992188 273.992188 214.671875 273.992188 141.5 C 273.992188 68.328125 214.671875 9.011719 141.5 9.011719 Z M 141.5 9.011719 " clip-rule="nonzero"/></clipPath><clipPath id="b20eb21401"><path d="M 0.0117188 0.0117188 L 264.992188 0.0117188 L 264.992188 264.992188 L 0.0117188 264.992188 Z M 0.0117188 0.0117188 " clip-rule="nonzero"/></clipPath><clipPath id="79ea0d805d"><path d="M 132.5 0.0117188 C 59.328125 0.0117188 0.0117188 59.328125 0.0117188 132.5 C 0.0117188 205.671875 59.328125 264.992188 132.5 264.992188 C 205.671875 264.992188 264.992188 205.671875 264.992188 132.5 C 264.992188 59.328125 205.671875 0.0117188 132.5 0.0117188 Z M 132.5 0.0117188 " clip-rule="nonzero"/></clipPath><linearGradient x1="0" gradientTransform="matrix(1.035083, 0, 0, 1.035083, 0.00985934, 0.00987183)" y1="128" x2="255.999999" gradientUnits="userSpaceOnUse" y2="128" id="3806126879"><stop stop-opacity="1" stop-color="rgb(0%, 53.329468%, 100%)" offset="0"/><stop stop-opacity="1" stop-color="rgb(0.195312%, 53.120422%, 99.804688%)" offset="0.00390625"/><stop stop-opacity="1" stop-color="rgb(0.392151%, 52.912903%, 99.610901%)" offset="0.0078125"/><stop stop-opacity="1" stop-color="rgb(0.587463%, 52.703857%, 99.415588%)" offset="0.0117188"/><stop stop-opacity="1" stop-color="rgb(0.784302%, 52.496338%, 99.221802%)" offset="0.015625"/><stop stop-opacity="1" stop-color="rgb(0.979614%, 52.287292%, 99.026489%)" offset="0.0195312"/><stop stop-opacity="1" stop-color="rgb(1.176453%, 52.079773%, 98.832703%)" offset="0.0234375"/><stop stop-opacity="1" stop-color="rgb(1.371765%, 51.870728%, 98.63739%)" offset="0.0273438"/><stop stop-opacity="1" stop-color="rgb(1.568604%, 51.663208%, 98.443604%)" offset="0.03125"/><stop stop-opacity="1" stop-color="rgb(1.763916%, 51.454163%, 98.248291%)" offset="0.0351562"/><stop stop-opacity="1" stop-color="rgb(1.960754%, 51.246643%, 98.054504%)" offset="0.0390625"/><stop stop-opacity="1" stop-color="rgb(2.156067%, 51.037598%, 97.859192%)" offset="0.0429688"/><stop stop-opacity="1" stop-color="rgb(2.352905%, 50.830078%, 97.665405%)" offset="0.046875"/><stop stop-opacity="1" stop-color="rgb(2.548218%, 50.621033%, 97.470093%)" offset="0.0507812"/><stop stop-opacity="1" stop-color="rgb(2.745056%, 50.413513%, 97.276306%)" offset="0.0546875"/><stop stop-opacity="1" stop-color="rgb(2.940369%, 50.204468%, 97.080994%)" offset="0.0585938"/><stop stop-opacity="1" stop-color="rgb(3.137207%, 49.995422%, 96.887207%)" offset="0.0625"/><stop stop-opacity="1" stop-color="rgb(3.33252%, 49.786377%, 96.691895%)" offset="0.0664062"/><stop stop-opacity="1" stop-color="rgb(3.529358%, 49.578857%, 96.498108%)" offset="0.0703125"/><stop stop-opacity="1" stop-color="rgb(3.72467%, 49.369812%, 96.302795%)" offset="0.0742188"/><stop stop-opacity="1" stop-color="rgb(3.921509%, 49.162292%, 96.109009%)" offset="0.078125"/><stop stop-opacity="1" stop-color="rgb(4.116821%, 48.953247%, 95.913696%)" offset="0.0820313"/><stop stop-opacity="1" stop-color="rgb(4.31366%, 48.745728%, 95.71991%)" offset="0.0859375"/><stop stop-opacity="1" stop-color="rgb(4.508972%, 48.536682%, 95.524597%)" offset="0.0898438"/><stop stop-opacity="1" stop-color="rgb(4.705811%, 48.329163%, 95.330811%)" offset="0.09375"/><stop stop-opacity="1" stop-color="rgb(4.901123%, 48.120117%, 95.135498%)" offset="0.0976562"/><stop stop-opacity="1" stop-color="rgb(5.097961%, 47.912598%, 94.941711%)" offset="0.101562"/><stop stop-opacity="1" stop-color="rgb(5.293274%, 47.703552%, 94.746399%)" offset="0.105469"/><stop stop-opacity="1" stop-color="rgb(5.490112%, 47.496033%, 94.552612%)" offset="0.109375"/><stop stop-opacity="1" stop-color="rgb(5.685425%, 47.286987%, 94.3573%)" offset="0.113281"/><stop stop-opacity="1" stop-color="rgb(5.882263%, 47.079468%, 94.163513%)" offset="0.117188"/><stop stop-opacity="1" stop-color="rgb(6.077576%, 46.870422%, 93.968201%)" offset="0.121094"/><stop stop-opacity="1" stop-color="rgb(6.274414%, 46.662903%, 93.774414%)" offset="0.125"/><stop stop-opacity="1" stop-color="rgb(6.469727%, 46.453857%, 93.579102%)" offset="0.128906"/><stop stop-opacity="1" stop-color="rgb(6.666565%, 46.246338%, 93.385315%)" offset="0.132812"/><stop stop-opacity="1" stop-color="rgb(6.861877%, 46.037292%, 93.190002%)" offset="0.136719"/><stop stop-opacity="1" stop-color="rgb(7.058716%, 45.829773%, 92.996216%)" offset="0.140625"/><stop stop-opacity="1" stop-color="rgb(7.254028%, 45.620728%, 92.800903%)" offset="0.144531"/><stop stop-opacity="1" stop-color="rgb(7.450867%, 45.413208%, 92.607117%)" offset="0.148438"/><stop stop-opacity="1" stop-color="rgb(7.646179%, 45.204163%, 92.411804%)" offset="0.152344"/><stop stop-opacity="1" stop-color="rgb(7.843018%, 44.996643%, 92.218018%)" offset="0.15625"/><stop stop-opacity="1" stop-color="rgb(8.03833%, 44.787598%, 92.022705%)" offset="0.160156"/><stop stop-opacity="1" stop-color="rgb(8.235168%, 44.580078%, 91.828918%)" offset="0.164063"/><stop stop-opacity="1" stop-color="rgb(8.430481%, 44.371033%, 91.633606%)" offset="0.167969"/><stop stop-opacity="1" stop-color="rgb(8.627319%, 44.163513%, 91.439819%)" offset="0.171875"/><stop stop-opacity="1" stop-color="rgb(8.822632%, 43.954468%, 91.244507%)" offset="0.175781"/><stop stop-opacity="1" stop-color="rgb(9.01947%, 43.746948%, 91.05072%)" offset="0.179688"/><stop stop-opacity="1" stop-color="rgb(9.214783%, 43.537903%, 90.855408%)" offset="0.183594"/><stop stop-opacity="1" stop-color="rgb(9.411621%, 43.330383%, 90.661621%)" offset="0.1875"/><stop stop-opacity="1" stop-color="rgb(9.606934%, 43.121338%, 90.466309%)" offset="0.191406"/><stop stop-opacity="1" stop-color="rgb(9.803772%, 42.913818%, 90.272522%)" offset="0.195312"/><stop stop-opacity="1" stop-color="rgb(9.999084%, 42.704773%, 90.077209%)" offset="0.199219"/><stop stop-opacity="1" stop-color="rgb(10.195923%, 42.497253%, 89.883423%)" offset="0.203125"/><stop stop-opacity="1" stop-color="rgb(10.391235%, 42.288208%, 89.68811%)" offset="0.207031"/><stop stop-opacity="1" stop-color="rgb(10.588074%, 42.080688%, 89.494324%)" offset="0.210938"/><stop stop-opacity="1" stop-color="rgb(10.783386%, 41.871643%, 89.299011%)" offset="0.214844"/><stop stop-opacity="1" stop-color="rgb(10.980225%, 41.662598%, 89.105225%)" offset="0.21875"/><stop stop-opacity="1" stop-color="rgb(11.175537%, 41.453552%, 88.909912%)" offset="0.222656"/><stop stop-opacity="1" stop-color="rgb(11.372375%, 41.246033%, 88.716125%)" offset="0.226562"/><stop stop-opacity="1" stop-color="rgb(11.567688%, 41.036987%, 88.520813%)" offset="0.230469"/><stop stop-opacity="1" stop-color="rgb(11.764526%, 40.829468%, 88.327026%)" offset="0.234375"/><stop stop-opacity="1" stop-color="rgb(11.959839%, 40.620422%, 88.131714%)" offset="0.238281"/><stop stop-opacity="1" stop-color="rgb(12.156677%, 40.412903%, 87.937927%)" offset="0.242188"/><stop stop-opacity="1" stop-color="rgb(12.35199%, 40.203857%, 87.742615%)" offset="0.246094"/><stop stop-opacity="1" stop-color="rgb(12.548828%, 39.996338%, 87.548828%)" offset="0.25"/><stop stop-opacity="1" stop-color="rgb(12.744141%, 39.787292%, 87.353516%)" offset="0.253906"/><stop stop-opacity="1" stop-color="rgb(12.940979%, 39.579773%, 87.159729%)" offset="0.257812"/><stop stop-opacity="1" stop-color="rgb(13.136292%, 39.370728%, 86.964417%)" offset="0.261719"/><stop stop-opacity="1" stop-color="rgb(13.33313%, 39.163208%, 86.77063%)" offset="0.265625"/><stop stop-opacity="1" stop-color="rgb(13.528442%, 38.954163%, 86.575317%)" offset="0.269531"/><stop stop-opacity="1" stop-color="rgb(13.725281%, 38.746643%, 86.381531%)" offset="0.273438"/><stop stop-opacity="1" stop-color="rgb(13.920593%, 38.537598%, 86.186218%)" offset="0.277344"/><stop stop-opacity="1" stop-color="rgb(14.117432%, 38.330078%, 85.992432%)" offset="0.28125"/><stop stop-opacity="1" stop-color="rgb(14.312744%, 38.121033%, 85.797119%)" offset="0.285156"/><stop stop-opacity="1" stop-color="rgb(14.509583%, 37.913513%, 85.603333%)" offset="0.289062"/><stop stop-opacity="1" stop-color="rgb(14.704895%, 37.704468%, 85.40802%)" offset="0.292969"/><stop stop-opacity="1" stop-color="rgb(14.901733%, 37.496948%, 85.214233%)" offset="0.296875"/><stop stop-opacity="1" stop-color="rgb(15.097046%, 37.287903%, 85.018921%)" offset="0.300781"/><stop stop-opacity="1" stop-color="rgb(15.293884%, 37.080383%, 84.825134%)" offset="0.304688"/><stop stop-opacity="1" stop-color="rgb(15.489197%, 36.871338%, 84.629822%)" offset="0.308594"/><stop stop-opacity="1" stop-color="rgb(15.686035%, 36.663818%, 84.436035%)" offset="0.3125"/><stop stop-opacity="1" stop-color="rgb(15.881348%, 36.454773%, 84.240723%)" offset="0.316406"/><stop stop-opacity="1" stop-color="rgb(16.078186%, 36.247253%, 84.046936%)" offset="0.320312"/><stop stop-opacity="1" stop-color="rgb(16.275024%, 36.038208%, 83.853149%)" offset="0.324219"/><stop stop-opacity="1" stop-color="rgb(16.471863%, 35.830688%, 83.659363%)" offset="0.328125"/><stop stop-opacity="1" stop-color="rgb(16.667175%, 35.621643%, 83.46405%)" offset="0.332031"/><stop stop-opacity="1" stop-color="rgb(16.864014%, 35.414124%, 83.270264%)" offset="0.335938"/><stop stop-opacity="1" stop-color="rgb(17.059326%, 35.205078%, 83.074951%)" offset="0.339844"/><stop stop-opacity="1" stop-color="rgb(17.256165%, 34.997559%, 82.881165%)" offset="0.34375"/><stop stop-opacity="1" stop-color="rgb(17.451477%, 34.788513%, 82.685852%)" offset="0.347656"/><stop stop-opacity="1" stop-color="rgb(17.648315%, 34.580994%, 82.492065%)" offset="0.351563"/><stop stop-opacity="1" stop-color="rgb(17.843628%, 34.371948%, 82.296753%)" offset="0.355469"/><stop stop-opacity="1" stop-color="rgb(18.040466%, 34.164429%, 82.102966%)" offset="0.359375"/><stop stop-opacity="1" stop-color="rgb(18.235779%, 33.955383%, 81.907654%)" offset="0.363281"/><stop stop-opacity="1" stop-color="rgb(18.432617%, 33.747864%, 81.713867%)" offset="0.367188"/><stop stop-opacity="1" stop-color="rgb(18.62793%, 33.538818%, 81.518555%)" offset="0.371094"/><stop stop-opacity="1" stop-color="rgb(18.824768%, 33.329773%, 81.324768%)" offset="0.375"/><stop stop-opacity="1" stop-color="rgb(19.020081%, 33.120728%, 81.129456%)" offset="0.378906"/><stop stop-opacity="1" stop-color="rgb(19.216919%, 32.913208%, 80.935669%)" offset="0.382812"/><stop stop-opacity="1" stop-color="rgb(19.412231%, 32.704163%, 80.740356%)" offset="0.386719"/><stop stop-opacity="1" stop-color="rgb(19.60907%, 32.496643%, 80.54657%)" offset="0.390625"/><stop stop-opacity="1" stop-color="rgb(19.804382%, 32.287598%, 80.351257%)" offset="0.394531"/><stop stop-opacity="1" stop-color="rgb(20.001221%, 32.080078%, 80.157471%)" offset="0.398438"/><stop stop-opacity="1" stop-color="rgb(20.196533%, 31.871033%, 79.962158%)" offset="0.402344"/><stop stop-opacity="1" stop-color="rgb(20.393372%, 31.663513%, 79.768372%)" offset="0.40625"/><stop stop-opacity="1" stop-color="rgb(20.588684%, 31.454468%, 79.573059%)" offset="0.410156"/><stop stop-opacity="1" stop-color="rgb(20.785522%, 31.246948%, 79.379272%)" offset="0.414062"/><stop stop-opacity="1" stop-color="rgb(20.980835%, 31.037903%, 79.18396%)" offset="0.417969"/><stop stop-opacity="1" stop-color="rgb(21.177673%, 30.830383%, 78.990173%)" offset="0.421875"/><stop stop-opacity="1" stop-color="rgb(21.372986%, 30.621338%, 78.794861%)" offset="0.425781"/><stop stop-opacity="1" stop-color="rgb(21.569824%, 30.413818%, 78.601074%)" offset="0.429688"/><stop stop-opacity="1" stop-color="rgb(21.765137%, 30.204773%, 78.405762%)" offset="0.433594"/><stop stop-opacity="1" stop-color="rgb(21.961975%, 29.997253%, 78.211975%)" offset="0.4375"/><stop stop-opacity="1" stop-color="rgb(22.157288%, 29.788208%, 78.016663%)" offset="0.441406"/><stop stop-opacity="1" stop-color="rgb(22.354126%, 29.580688%, 77.822876%)" offset="0.445312"/><stop stop-opacity="1" stop-color="rgb(22.549438%, 29.371643%, 77.627563%)" offset="0.449219"/><stop stop-opacity="1" stop-color="rgb(22.746277%, 29.164124%, 77.433777%)" offset="0.453125"/><stop stop-opacity="1" stop-color="rgb(22.941589%, 28.955078%, 77.238464%)" offset="0.457031"/><stop stop-opacity="1" stop-color="rgb(23.138428%, 28.747559%, 77.044678%)" offset="0.460938"/><stop stop-opacity="1" stop-color="rgb(23.33374%, 28.538513%, 76.849365%)" offset="0.464844"/><stop stop-opacity="1" stop-color="rgb(23.530579%, 28.330994%, 76.655579%)" offset="0.46875"/><stop stop-opacity="1" stop-color="rgb(23.725891%, 28.121948%, 76.460266%)" offset="0.472656"/><stop stop-opacity="1" stop-color="rgb(23.922729%, 27.914429%, 76.266479%)" offset="0.476563"/><stop stop-opacity="1" stop-color="rgb(24.118042%, 27.705383%, 76.071167%)" offset="0.480469"/><stop stop-opacity="1" stop-color="rgb(24.31488%, 27.497864%, 75.87738%)" offset="0.484375"/><stop stop-opacity="1" stop-color="rgb(24.510193%, 27.288818%, 75.682068%)" offset="0.488281"/><stop stop-opacity="1" stop-color="rgb(24.707031%, 27.081299%, 75.488281%)" offset="0.492188"/><stop stop-opacity="1" stop-color="rgb(24.902344%, 26.872253%, 75.292969%)" offset="0.496094"/><stop stop-opacity="1" stop-color="rgb(25.099182%, 26.664734%, 75.099182%)" offset="0.5"/><stop stop-opacity="1" stop-color="rgb(25.294495%, 26.455688%, 74.90387%)" offset="0.503906"/><stop stop-opacity="1" stop-color="rgb(25.491333%, 26.248169%, 74.710083%)" offset="0.507812"/><stop stop-opacity="1" stop-color="rgb(25.686646%, 26.039124%, 74.514771%)" offset="0.511719"/><stop stop-opacity="1" stop-color="rgb(25.883484%, 25.831604%, 74.320984%)" offset="0.515625"/><stop stop-opacity="1" stop-color="rgb(26.078796%, 25.622559%, 74.125671%)" offset="0.519531"/><stop stop-opacity="1" stop-color="rgb(26.275635%, 25.415039%, 73.931885%)" offset="0.523438"/><stop stop-opacity="1" stop-color="rgb(26.470947%, 25.205994%, 73.736572%)" offset="0.527344"/><stop stop-opacity="1" stop-color="rgb(26.667786%, 24.996948%, 73.542786%)" offset="0.53125"/><stop stop-opacity="1" stop-color="rgb(26.863098%, 24.787903%, 73.347473%)" offset="0.535156"/><stop stop-opacity="1" stop-color="rgb(27.059937%, 24.580383%, 73.153687%)" offset="0.539062"/><stop stop-opacity="1" stop-color="rgb(27.255249%, 24.371338%, 72.958374%)" offset="0.542969"/><stop stop-opacity="1" stop-color="rgb(27.452087%, 24.163818%, 72.764587%)" offset="0.546875"/><stop stop-opacity="1" stop-color="rgb(27.6474%, 23.954773%, 72.569275%)" offset="0.550781"/><stop stop-opacity="1" stop-color="rgb(27.844238%, 23.747253%, 72.375488%)" offset="0.554688"/><stop stop-opacity="1" stop-color="rgb(28.039551%, 23.538208%, 72.180176%)" offset="0.558594"/><stop stop-opacity="1" stop-color="rgb(28.236389%, 23.330688%, 71.986389%)" offset="0.5625"/><stop stop-opacity="1" stop-color="rgb(28.431702%, 23.121643%, 71.791077%)" offset="0.566406"/><stop stop-opacity="1" stop-color="rgb(28.62854%, 22.914124%, 71.59729%)" offset="0.570312"/><stop stop-opacity="1" stop-color="rgb(28.823853%, 22.705078%, 71.401978%)" offset="0.574219"/><stop stop-opacity="1" stop-color="rgb(29.020691%, 22.497559%, 71.208191%)" offset="0.578125"/><stop stop-opacity="1" stop-color="rgb(29.216003%, 22.288513%, 71.012878%)" offset="0.582031"/><stop stop-opacity="1" stop-color="rgb(29.412842%, 22.080994%, 70.819092%)" offset="0.585938"/><stop stop-opacity="1" stop-color="rgb(29.608154%, 21.871948%, 70.623779%)" offset="0.589844"/><stop stop-opacity="1" stop-color="rgb(29.804993%, 21.664429%, 70.429993%)" offset="0.59375"/><stop stop-opacity="1" stop-color="rgb(30.000305%, 21.455383%, 70.23468%)" offset="0.597656"/><stop stop-opacity="1" stop-color="rgb(30.197144%, 21.247864%, 70.040894%)" offset="0.601562"/><stop stop-opacity="1" stop-color="rgb(30.392456%, 21.038818%, 69.845581%)" offset="0.605469"/><stop stop-opacity="1" stop-color="rgb(30.589294%, 20.831299%, 69.651794%)" offset="0.609375"/><stop stop-opacity="1" stop-color="rgb(30.784607%, 20.622253%, 69.456482%)" offset="0.613281"/><stop stop-opacity="1" stop-color="rgb(30.981445%, 20.414734%, 69.262695%)" offset="0.617188"/><stop stop-opacity="1" stop-color="rgb(31.176758%, 20.205688%, 69.067383%)" offset="0.621094"/><stop stop-opacity="1" stop-color="rgb(31.373596%, 19.998169%, 68.873596%)" offset="0.625"/><stop stop-opacity="1" stop-color="rgb(31.568909%, 19.789124%, 68.678284%)" offset="0.628906"/><stop stop-opacity="1" stop-color="rgb(31.765747%, 19.581604%, 68.484497%)" offset="0.632812"/><stop stop-opacity="1" stop-color="rgb(31.96106%, 19.372559%, 68.289185%)" offset="0.636719"/><stop stop-opacity="1" stop-color="rgb(32.157898%, 19.165039%, 68.095398%)" offset="0.640625"/><stop stop-opacity="1" stop-color="rgb(32.35321%, 18.955994%, 67.900085%)" offset="0.644531"/><stop stop-opacity="1" stop-color="rgb(32.550049%, 18.748474%, 67.706299%)" offset="0.648438"/><stop stop-opacity="1" stop-color="rgb(32.746887%, 18.539429%, 67.512512%)" offset="0.652344"/><stop stop-opacity="1" stop-color="rgb(32.943726%, 18.331909%, 67.318726%)" offset="0.65625"/><stop stop-opacity="1" stop-color="rgb(33.139038%, 18.122864%, 67.123413%)" offset="0.660156"/><stop stop-opacity="1" stop-color="rgb(33.335876%, 17.915344%, 66.929626%)" offset="0.664063"/><stop stop-opacity="1" stop-color="rgb(33.531189%, 17.706299%, 66.734314%)" offset="0.667969"/><stop stop-opacity="1" stop-color="rgb(33.728027%, 17.498779%, 66.540527%)" offset="0.671875"/><stop stop-opacity="1" stop-color="rgb(33.92334%, 17.289734%, 66.345215%)" offset="0.675781"/><stop stop-opacity="1" stop-color="rgb(34.120178%, 17.082214%, 66.151428%)" offset="0.679688"/><stop stop-opacity="1" stop-color="rgb(34.315491%, 16.873169%, 65.956116%)" offset="0.683594"/><stop stop-opacity="1" stop-color="rgb(34.512329%, 16.664124%, 65.762329%)" offset="0.6875"/><stop stop-opacity="1" stop-color="rgb(34.707642%, 16.455078%, 65.567017%)" offset="0.691406"/><stop stop-opacity="1" stop-color="rgb(34.90448%, 16.247559%, 65.37323%)" offset="0.695313"/><stop stop-opacity="1" stop-color="rgb(35.099792%, 16.038513%, 65.177917%)" offset="0.699219"/><stop stop-opacity="1" stop-color="rgb(35.296631%, 15.830994%, 64.984131%)" offset="0.703125"/><stop stop-opacity="1" stop-color="rgb(35.491943%, 15.621948%, 64.788818%)" offset="0.707031"/><stop stop-opacity="1" stop-color="rgb(35.688782%, 15.414429%, 64.595032%)" offset="0.710938"/><stop stop-opacity="1" stop-color="rgb(35.884094%, 15.205383%, 64.399719%)" offset="0.714844"/><stop stop-opacity="1" stop-color="rgb(36.080933%, 14.997864%, 64.205933%)" offset="0.71875"/><stop stop-opacity="1" stop-color="rgb(36.276245%, 14.788818%, 64.01062%)" offset="0.722656"/><stop stop-opacity="1" stop-color="rgb(36.473083%, 14.581299%, 63.816833%)" offset="0.726563"/><stop stop-opacity="1" stop-color="rgb(36.668396%, 14.372253%, 63.621521%)" offset="0.730469"/><stop stop-opacity="1" stop-color="rgb(36.865234%, 14.164734%, 63.427734%)" offset="0.734375"/><stop stop-opacity="1" stop-color="rgb(37.060547%, 13.955688%, 63.232422%)" offset="0.738281"/><stop stop-opacity="1" stop-color="rgb(37.257385%, 13.748169%, 63.038635%)" offset="0.742188"/><stop stop-opacity="1" stop-color="rgb(37.452698%, 13.539124%, 62.843323%)" offset="0.746094"/><stop stop-opacity="1" stop-color="rgb(37.649536%, 13.331604%, 62.649536%)" offset="0.75"/><stop stop-opacity="1" stop-color="rgb(37.844849%, 13.122559%, 62.454224%)" offset="0.753906"/><stop stop-opacity="1" stop-color="rgb(38.041687%, 12.915039%, 62.260437%)" offset="0.757812"/><stop stop-opacity="1" stop-color="rgb(38.237%, 12.705994%, 62.065125%)" offset="0.761719"/><stop stop-opacity="1" stop-color="rgb(38.433838%, 12.498474%, 61.871338%)" offset="0.765625"/><stop stop-opacity="1" stop-color="rgb(38.62915%, 12.289429%, 61.676025%)" offset="0.769531"/><stop stop-opacity="1" stop-color="rgb(38.825989%, 12.081909%, 61.482239%)" offset="0.773437"/><stop stop-opacity="1" stop-color="rgb(39.021301%, 11.872864%, 61.286926%)" offset="0.777344"/><stop stop-opacity="1" stop-color="rgb(39.21814%, 11.665344%, 61.09314%)" offset="0.78125"/><stop stop-opacity="1" stop-color="rgb(39.413452%, 11.456299%, 60.897827%)" offset="0.785156"/><stop stop-opacity="1" stop-color="rgb(39.610291%, 11.248779%, 60.704041%)" offset="0.789062"/><stop stop-opacity="1" stop-color="rgb(39.805603%, 11.039734%, 60.508728%)" offset="0.792969"/><stop stop-opacity="1" stop-color="rgb(40.002441%, 10.832214%, 60.314941%)" offset="0.796875"/><stop stop-opacity="1" stop-color="rgb(40.197754%, 10.623169%, 60.119629%)" offset="0.800781"/><stop stop-opacity="1" stop-color="rgb(40.394592%, 10.415649%, 59.925842%)" offset="0.804688"/><stop stop-opacity="1" stop-color="rgb(40.589905%, 10.206604%, 59.73053%)" offset="0.808594"/><stop stop-opacity="1" stop-color="rgb(40.786743%, 9.999084%, 59.536743%)" offset="0.8125"/><stop stop-opacity="1" stop-color="rgb(40.982056%, 9.790039%, 59.341431%)" offset="0.816406"/><stop stop-opacity="1" stop-color="rgb(41.178894%, 9.58252%, 59.147644%)" offset="0.820312"/><stop stop-opacity="1" stop-color="rgb(41.374207%, 9.373474%, 58.952332%)" offset="0.824219"/><stop stop-opacity="1" stop-color="rgb(41.571045%, 9.165955%, 58.758545%)" offset="0.828125"/><stop stop-opacity="1" stop-color="rgb(41.766357%, 8.956909%, 58.563232%)" offset="0.832031"/><stop stop-opacity="1" stop-color="rgb(41.963196%, 8.74939%, 58.369446%)" offset="0.835938"/><stop stop-opacity="1" stop-color="rgb(42.158508%, 8.540344%, 58.174133%)" offset="0.839844"/><stop stop-opacity="1" stop-color="rgb(42.355347%, 8.331299%, 57.980347%)" offset="0.84375"/><stop stop-opacity="1" stop-color="rgb(42.550659%, 8.122253%, 57.785034%)" offset="0.847656"/><stop stop-opacity="1" stop-color="rgb(42.747498%, 7.914734%, 57.591248%)" offset="0.851562"/><stop stop-opacity="1" stop-color="rgb(42.94281%, 7.705688%, 57.395935%)" offset="0.855469"/><stop stop-opacity="1" stop-color="rgb(43.139648%, 7.498169%, 57.202148%)" offset="0.859375"/><stop stop-opacity="1" stop-color="rgb(43.334961%, 7.289124%, 57.006836%)" offset="0.863281"/><stop stop-opacity="1" stop-color="rgb(43.531799%, 7.081604%, 56.813049%)" offset="0.867188"/><stop stop-opacity="1" stop-color="rgb(43.727112%, 6.872559%, 56.617737%)" offset="0.871094"/><stop stop-opacity="1" stop-color="rgb(43.92395%, 6.665039%, 56.42395%)" offset="0.875"/><stop stop-opacity="1" stop-color="rgb(44.119263%, 6.455994%, 56.228638%)" offset="0.878906"/><stop stop-opacity="1" stop-color="rgb(44.316101%, 6.248474%, 56.034851%)" offset="0.882812"/><stop stop-opacity="1" stop-color="rgb(44.511414%, 6.039429%, 55.839539%)" offset="0.886719"/><stop stop-opacity="1" stop-color="rgb(44.708252%, 5.831909%, 55.645752%)" offset="0.890625"/><stop stop-opacity="1" stop-color="rgb(44.903564%, 5.622864%, 55.450439%)" offset="0.894531"/><stop stop-opacity="1" stop-color="rgb(45.100403%, 5.415344%, 55.256653%)" offset="0.898438"/><stop stop-opacity="1" stop-color="rgb(45.295715%, 5.206299%, 55.06134%)" offset="0.902344"/><stop stop-opacity="1" stop-color="rgb(45.492554%, 4.998779%, 54.867554%)" offset="0.90625"/><stop stop-opacity="1" stop-color="rgb(45.687866%, 4.789734%, 54.672241%)" offset="0.910156"/><stop stop-opacity="1" stop-color="rgb(45.884705%, 4.582214%, 54.478455%)" offset="0.914062"/><stop stop-opacity="1" stop-color="rgb(46.080017%, 4.373169%, 54.283142%)" offset="0.917969"/><stop stop-opacity="1" stop-color="rgb(46.276855%, 4.165649%, 54.089355%)" offset="0.921875"/><stop stop-opacity="1" stop-color="rgb(46.472168%, 3.956604%, 53.894043%)" offset="0.925781"/><stop stop-opacity="1" stop-color="rgb(46.669006%, 3.749084%, 53.700256%)" offset="0.929688"/><stop stop-opacity="1" stop-color="rgb(46.864319%, 3.540039%, 53.504944%)" offset="0.933594"/><stop stop-opacity="1" stop-color="rgb(47.061157%, 3.33252%, 53.311157%)" offset="0.9375"/><stop stop-opacity="1" stop-color="rgb(47.25647%, 3.123474%, 53.115845%)" offset="0.941406"/><stop stop-opacity="1" stop-color="rgb(47.453308%, 2.915955%, 52.922058%)" offset="0.945313"/><stop stop-opacity="1" stop-color="rgb(47.648621%, 2.706909%, 52.726746%)" offset="0.949219"/><stop stop-opacity="1" stop-color="rgb(47.845459%, 2.49939%, 52.532959%)" offset="0.953125"/><stop stop-opacity="1" stop-color="rgb(48.040771%, 2.290344%, 52.337646%)" offset="0.957031"/><stop stop-opacity="1" stop-color="rgb(48.23761%, 2.082825%, 52.14386%)" offset="0.960938"/><stop stop-opacity="1" stop-color="rgb(48.432922%, 1.873779%, 51.948547%)" offset="0.964844"/><stop stop-opacity="1" stop-color="rgb(48.629761%, 1.66626%, 51.754761%)" offset="0.96875"/><stop stop-opacity="1" stop-color="rgb(48.825073%, 1.457214%, 51.560974%)" offset="0.972656"/><stop stop-opacity="1" stop-color="rgb(49.021912%, 1.249695%, 51.367188%)" offset="0.976563"/><stop stop-opacity="1" stop-color="rgb(49.21875%, 1.040649%, 51.171875%)" offset="0.980469"/><stop stop-opacity="1" stop-color="rgb(49.415588%, 0.83313%, 50.978088%)" offset="0.984375"/><stop stop-opacity="1" stop-color="rgb(49.610901%, 0.624084%, 50.782776%)" offset="0.988281"/><stop stop-opacity="1" stop-color="rgb(49.807739%, 0.416565%, 50.588989%)" offset="0.992188"/><stop stop-opacity="1" stop-color="rgb(50.003052%, 0.20752%, 50.393677%)" offset="0.996094"/><stop stop-opacity="1" stop-color="rgb(50.19989%, 0%, 50.19989%)" offset="1"/></linearGradient><clipPath id="440a3e375c"><rect x="0" width="265" y="0" height="265"/></clipPath><clipPath id="dbe8a68284"><rect x="0" width="283" y="0" height="283"/></clipPath></defs><path fill="#ffffff" d="M 0 0 L 283 0 L 283 283 L 0 283 Z M 0 0 " fill-opacity="1" fill-rule="nonzero"/><g transform="matrix(1, 0, 0, 1, 0, 0.000000000000005262)"><g clip-path="url(#dbe8a68284)"><g clip-path="url(#f79d8231c8)"><rect x="-62.37" width="408.24" fill="#ffffff" height="408.240007" y="-62.370001" fill-opacity="1"/></g><g clip-path="url(#c20606b42b)"><g clip-path="url(#b50b152aee)"><g transform="matrix(1, 0, 0, 1, 9, 9)"><g clip-path="url(#440a3e375c)"><g clip-path="url(#b20eb21401)"><g clip-path="url(#79ea0d805d)"><path fill="url(#3806126879)" d="M 0.0117188 0.0117188 L 0.0117188 264.992188 L 264.992188 264.992188 L 264.992188 0.0117188 Z M 0.0117188 0.0117188 " fill-rule="nonzero"/></g></g></g></g></g></g><g fill="#00ffff" fill-opacity="1"><g transform="translate(45.652124, 161.085233)"><g><path d="M 63.171875 -45.515625 L 57.890625 -45.515625 L 57.890625 0 L 40.734375 0 L 20.359375 -30.421875 L 20.359375 -10.296875 L 26.515625 -10.296875 L 26.515625 0 L 2 0 L 2 -10.296875 L 6.703125 -10.296875 L 6.703125 -45.515625 L 2.078125 -45.515625 L 2.078125 -55.828125 L 25 -55.828125 L 44.5625 -26.515625 L 44.5625 -45.515625 L 39.125 -45.515625 L 39.125 -55.828125 L 63.171875 -55.828125 Z M 63.171875 -45.515625 "/></g></g></g><g fill="#00ffff" fill-opacity="1"><g transform="translate(110.819017, 161.085233)"><g><path d="M 29.78125 1.4375 C 24.25 1.4375 19.328125 0.355469 15.015625 -1.796875 C 10.703125 -3.953125 7.320312 -7.222656 4.875 -11.609375 C 2.425781 -16.003906 1.203125 -21.53125 1.203125 -28.1875 C 1.203125 -33.9375 2.382812 -39.003906 4.75 -43.390625 C 7.125 -47.785156 10.425781 -51.207031 14.65625 -53.65625 C 18.882812 -56.113281 23.742188 -57.34375 29.234375 -57.34375 C 35.773438 -57.34375 41.160156 -56.113281 45.390625 -53.65625 C 49.628906 -51.207031 52.769531 -47.757812 54.8125 -43.3125 C 56.863281 -38.875 57.890625 -33.644531 57.890625 -27.625 C 57.890625 -21.613281 56.796875 -16.4375 54.609375 -12.09375 C 52.429688 -7.757812 49.253906 -4.421875 45.078125 -2.078125 C 40.898438 0.261719 35.800781 1.4375 29.78125 1.4375 Z M 29.78125 -11.09375 C 32.289062 -11.09375 34.273438 -12.609375 35.734375 -15.640625 C 37.203125 -18.679688 37.9375 -22.675781 37.9375 -27.625 C 37.9375 -30.875 37.628906 -33.800781 37.015625 -36.40625 C 36.398438 -39.019531 35.453125 -41.113281 34.171875 -42.6875 C 32.898438 -44.257812 31.226562 -45.046875 29.15625 -45.046875 C 27.550781 -45.097656 26.125 -44.40625 24.875 -42.96875 C 23.625 -41.53125 22.648438 -39.53125 21.953125 -36.96875 C 21.265625 -34.414062 20.921875 -31.488281 20.921875 -28.1875 C 20.921875 -22.96875 21.757812 -18.8125 23.4375 -15.71875 C 25.113281 -12.632812 27.226562 -11.09375 29.78125 -11.09375 Z M 29.78125 -11.09375 "/></g></g></g><g fill="#00ffff" fill-opacity="1"><g transform="translate(169.916445, 161.085233)"><g><path d="M 28.515625 0 L 2 0 L 2 -10.296875 L 8.9375 -10.296875 L 20.6875 -25.5625 L 6.234375 -45.4375 L 2.078125 -45.4375 L 2.078125 -55.828125 L 33.703125 -55.828125 L 33.703125 -45.4375 L 29.0625 -45.4375 L 36.890625 -34.8125 L 45.046875 -45.4375 L 38.015625 -45.4375 L 38.015625 -55.828125 L 64.53125 -55.828125 L 64.53125 -45.4375 L 57.734375 -45.4375 L 45.671875 -30.03125 L 60.046875 -10.375 L 64.6875 -10.375 L 64.6875 0 L 32.828125 0 L 32.828125 -10.375 L 37.375 -10.375 L 31.3125 -18.53125 L 29.625 -20.765625 L 21.40625 -10.296875 L 28.515625 -10.296875 Z M 28.515625 0 "/></g></g></g><g fill="#ff00ff" fill-opacity="1"><g transform="translate(46.388156, 161.60061)"><g><path d="M 63.171875 -45.515625 L 57.890625 -45.515625 L 57.890625 0 L 40.734375 0 L 20.359375 -30.421875 L 20.359375 -10.296875 L 26.515625 -10.296875 L 26.515625 0 L 2 0 L 2 -10.296875 L 6.703125 -10.296875 L 6.703125 -45.515625 L 2.078125 -45.515625 L 2.078125 -55.828125 L 25 -55.828125 L 44.5625 -26.515625 L 44.5625 -45.515625 L 39.125 -45.515625 L 39.125 -55.828125 L 63.171875 -55.828125 Z M 63.171875 -45.515625 "/></g></g></g><g fill="#ff00ff" fill-opacity="1"><g transform="translate(111.55505, 161.60061)"><g><path d="M 29.78125 1.4375 C 24.25 1.4375 19.328125 0.355469 15.015625 -1.796875 C 10.703125 -3.953125 7.320312 -7.222656 4.875 -11.609375 C 2.425781 -16.003906 1.203125 -21.53125 1.203125 -28.1875 C 1.203125 -33.9375 2.382812 -39.003906 4.75 -43.390625 C 7.125 -47.785156 10.425781 -51.207031 14.65625 -53.65625 C 18.882812 -56.113281 23.742188 -57.34375 29.234375 -57.34375 C 35.773438 -57.34375 41.160156 -56.113281 45.390625 -53.65625 C 49.628906 -51.207031 52.769531 -47.757812 54.8125 -43.3125 C 56.863281 -38.875 57.890625 -33.644531 57.890625 -27.625 C 57.890625 -21.613281 56.796875 -16.4375 54.609375 -12.09375 C 52.429688 -7.757812 49.253906 -4.421875 45.078125 -2.078125 C 40.898438 0.261719 35.800781 1.4375 29.78125 1.4375 Z M 29.78125 -11.09375 C 32.289062 -11.09375 34.273438 -12.609375 35.734375 -15.640625 C 37.203125 -18.679688 37.9375 -22.675781 37.9375 -27.625 C 37.9375 -30.875 37.628906 -33.800781 37.015625 -36.40625 C 36.398438 -39.019531 35.453125 -41.113281 34.171875 -42.6875 C 32.898438 -44.257812 31.226562 -45.046875 29.15625 -45.046875 C 27.550781 -45.097656 26.125 -44.40625 24.875 -42.96875 C 23.625 -41.53125 22.648438 -39.53125 21.953125 -36.96875 C 21.265625 -34.414062 20.921875 -31.488281 20.921875 -28.1875 C 20.921875 -22.96875 21.757812 -18.8125 23.4375 -15.71875 C 25.113281 -12.632812 27.226562 -11.09375 29.78125 -11.09375 Z M 29.78125 -11.09375 "/></g></g></g><g fill="#ff00ff" fill-opacity="1"><g transform="translate(170.652477, 161.60061)"><g><path d="M 28.515625 0 L 2 0 L 2 -10.296875 L 8.9375 -10.296875 L 20.6875 -25.5625 L 6.234375 -45.4375 L 2.078125 -45.4375 L 2.078125 -55.828125 L 33.703125 -55.828125 L 33.703125 -45.4375 L 29.0625 -45.4375 L 36.890625 -34.8125 L 45.046875 -45.4375 L 38.015625 -45.4375 L 38.015625 -55.828125 L 64.53125 -55.828125 L 64.53125 -45.4375 L 57.734375 -45.4375 L 45.671875 -30.03125 L 60.046875 -10.375 L 64.6875 -10.375 L 64.6875 0 L 32.828125 0 L 32.828125 -10.375 L 37.375 -10.375 L 31.3125 -18.53125 L 29.625 -20.765625 L 21.40625 -10.296875 L 28.515625 -10.296875 Z M 28.515625 0 "/></g></g></g><g fill="#ffffff" fill-opacity="1"><g transform="translate(46.020141, 161.342923)"><g><path d="M 63.171875 -45.515625 L 57.890625 -45.515625 L 57.890625 0 L 40.734375 0 L 20.359375 -30.421875 L 20.359375 -10.296875 L 26.515625 -10.296875 L 26.515625 0 L 2 0 L 2 -10.296875 L 6.703125 -10.296875 L 6.703125 -45.515625 L 2.078125 -45.515625 L 2.078125 -55.828125 L 25 -55.828125 L 44.5625 -26.515625 L 44.5625 -45.515625 L 39.125 -45.515625 L 39.125 -55.828125 L 63.171875 -55.828125 Z M 63.171875 -45.515625 "/></g></g></g><g fill="#ffffff" fill-opacity="1"><g transform="translate(111.187035, 161.342923)"><g><path d="M 29.78125 1.4375 C 24.25 1.4375 19.328125 0.355469 15.015625 -1.796875 C 10.703125 -3.953125 7.320312 -7.222656 4.875 -11.609375 C 2.425781 -16.003906 1.203125 -21.53125 1.203125 -28.1875 C 1.203125 -33.9375 2.382812 -39.003906 4.75 -43.390625 C 7.125 -47.785156 10.425781 -51.207031 14.65625 -53.65625 C 18.882812 -56.113281 23.742188 -57.34375 29.234375 -57.34375 C 35.773438 -57.34375 41.160156 -56.113281 45.390625 -53.65625 C 49.628906 -51.207031 52.769531 -47.757812 54.8125 -43.3125 C 56.863281 -38.875 57.890625 -33.644531 57.890625 -27.625 C 57.890625 -21.613281 56.796875 -16.4375 54.609375 -12.09375 C 52.429688 -7.757812 49.253906 -4.421875 45.078125 -2.078125 C 40.898438 0.261719 35.800781 1.4375 29.78125 1.4375 Z M 29.78125 -11.09375 C 32.289062 -11.09375 34.273438 -12.609375 35.734375 -15.640625 C 37.203125 -18.679688 37.9375 -22.675781 37.9375 -27.625 C 37.9375 -30.875 37.628906 -33.800781 37.015625 -36.40625 C 36.398438 -39.019531 35.453125 -41.113281 34.171875 -42.6875 C 32.898438 -44.257812 31.226562 -45.046875 29.15625 -45.046875 C 27.550781 -45.097656 26.125 -44.40625 24.875 -42.96875 C 23.625 -41.53125 22.648438 -39.53125 21.953125 -36.96875 C 21.265625 -34.414062 20.921875 -31.488281 20.921875 -28.1875 C 20.921875 -22.96875 21.757812 -18.8125 23.4375 -15.71875 C 25.113281 -12.632812 27.226562 -11.09375 29.78125 -11.09375 Z M 29.78125 -11.09375 "/></g></g></g><g fill="#ffffff" fill-opacity="1"><g transform="translate(170.284462, 161.342923)"><g><path d="M 28.515625 0 L 2 0 L 2 -10.296875 L 8.9375 -10.296875 L 20.6875 -25.5625 L 6.234375 -45.4375 L 2.078125 -45.4375 L 2.078125 -55.828125 L 33.703125 -55.828125 L 33.703125 -45.4375 L 29.0625 -45.4375 L 36.890625 -34.8125 L 45.046875 -45.4375 L 38.015625 -45.4375 L 38.015625 -55.828125 L 64.53125 -55.828125 L 64.53125 -45.4375 L 57.734375 -45.4375 L 45.671875 -30.03125 L 60.046875 -10.375 L 64.6875 -10.375 L 64.6875 0 L 32.828125 0 L 32.828125 -10.375 L 37.375 -10.375 L 31.3125 -18.53125 L 29.625 -20.765625 L 21.40625 -10.296875 L 28.515625 -10.296875 Z M 28.515625 0 "/></g></g></g></g></g></svg>